<svg width="1440" height="283" viewBox="0 0 1440 283" fill="none" xmlns="http://www.w3.org/2000/svg">
<g filter="url(#filter0_d_25_82)">
<path fill-rule="evenodd" clip-rule="evenodd" d="M0 42.5548L60 54.5795C120 66.6043 240 90.6537 360 78.629C480 66.6043 600 18.5053 720 24.5177C840 30.53 960 90.6537 1080 108.691C1200 126.728 1320 102.678 1380 90.6537L1440 78.629V259H1380C1320 259 1200 259 1080 259C960 259 840 259 720 259C600 259 480 259 360 259C240 259 120 259 60 259H0V42.5548Z" fill="url(#paint0_linear_25_82)"/>
</g>
<defs>
<filter id="filter0_d_25_82" x="-24" y="0" width="1488" height="283" filterUnits="userSpaceOnUse" color-interpolation-filters="sRGB">
<feFlood flood-opacity="0" result="BackgroundImageFix"/>
<feColorMatrix in="SourceAlpha" type="matrix" values="0 0 0 0 0 0 0 0 0 0 0 0 0 0 0 0 0 0 127 0" result="hardAlpha"/>
<feOffset/>
<feGaussianBlur stdDeviation="12"/>
<feComposite in2="hardAlpha" operator="out"/>
<feColorMatrix type="matrix" values="0 0 0 0 0 0 0 0 0 0 0 0 0 0 0 0 0 0 0.25 0"/>
<feBlend mode="normal" in2="BackgroundImageFix" result="effect1_dropShadow_25_82"/>
<feBlend mode="normal" in="SourceGraphic" in2="effect1_dropShadow_25_82" result="shape"/>
</filter>
<linearGradient id="paint0_linear_25_82" x1="720" y1="259" x2="724.816" y2="58.8806" gradientUnits="userSpaceOnUse">
<stop offset="0.236569" stop-color="#032560"/>
<stop offset="1" stop-color="#0073A3"/>
</linearGradient>
</defs>
</svg>
