<svg width="60" height="59" viewBox="0 0 60 59" fill="none" xmlns="http://www.w3.org/2000/svg">
<path fill-rule="evenodd" clip-rule="evenodd" d="M17.5706 0.177C20.7585 0.0321818 21.775 0 29.8958 0C38.0165 0 39.033 0.0348636 42.2182 0.177C45.4035 0.319136 47.5777 0.820636 49.4802 1.54741C51.4723 2.29027 53.2797 3.4515 54.7745 4.95332C56.2964 6.42564 57.4705 8.20636 58.2206 10.1748C58.9599 12.0521 59.4654 14.1975 59.6121 17.3353C59.7589 20.4864 59.7915 21.4894 59.7915 29.5C59.7915 37.5133 59.7562 38.5163 59.6121 41.662C59.4681 44.7998 58.9599 46.9452 58.2206 48.8225C57.4705 50.7912 56.2945 52.5749 54.7745 54.0494C53.2797 55.5512 51.4723 56.7097 49.4802 57.4499C47.5777 58.1794 45.4035 58.6782 42.2237 58.823C39.033 58.9678 38.0165 59 29.8958 59C21.775 59 20.7585 58.9651 17.5706 58.823C14.3907 58.6809 12.2165 58.1794 10.314 57.4499C8.31896 56.7096 6.51135 55.5492 5.01705 54.0494C3.49612 52.5762 2.31914 50.7933 1.56817 48.8252C0.831646 46.9479 0.326135 44.8025 0.179375 41.6647C0.0326135 38.5136 0 37.5106 0 29.5C0 21.4867 0.0353313 20.4837 0.179375 17.3406C0.323418 14.1975 0.831646 12.0521 1.56817 10.1748C2.32024 8.20658 3.49813 6.42379 5.01977 4.95064C6.51195 3.45016 8.31774 2.28878 10.3113 1.54741C12.2138 0.820636 14.388 0.321818 17.5678 0.177H17.5706ZM41.9764 5.487C38.8237 5.34486 37.8779 5.31536 29.8958 5.31536C21.9136 5.31536 20.9678 5.34486 17.8152 5.487C14.899 5.61841 13.3172 6.09845 12.2627 6.50341C10.8685 7.03977 9.87104 7.67536 8.82468 8.70786C7.83281 9.66005 7.06948 10.8192 6.59066 12.1004C6.18027 13.1409 5.69378 14.7017 5.56061 17.5793C5.41657 20.6902 5.38667 21.6235 5.38667 29.5C5.38667 37.3765 5.41657 38.3098 5.56061 41.4207C5.69378 44.2983 6.18027 45.8591 6.59066 46.8996C7.06899 48.1789 7.83269 49.3401 8.82468 50.2921C9.7895 51.271 10.9663 52.0246 12.2627 52.4966C13.3172 52.9016 14.899 53.3816 17.8152 53.513C20.9678 53.6551 21.9109 53.6846 29.8958 53.6846C37.8806 53.6846 38.8237 53.6551 41.9764 53.513C44.8926 53.3816 46.4743 52.9016 47.5288 52.4966C48.923 51.9602 49.9205 51.3246 50.9668 50.2921C51.9588 49.3401 52.7225 48.1789 53.2009 46.8996C53.6112 45.8591 54.0977 44.2983 54.2309 41.4207C54.3749 38.3098 54.4048 37.3765 54.4048 29.5C54.4048 21.6235 54.3749 20.6902 54.2309 17.5793C54.0977 14.7017 53.6112 13.1409 53.2009 12.1004C52.6573 10.7246 52.0132 9.74036 50.9668 8.70786C50.0018 7.72919 48.8271 6.97597 47.5288 6.50341C46.4743 6.09845 44.8926 5.61841 41.9764 5.487ZM26.0773 38.594C28.2098 39.47 30.5844 39.5882 32.7955 38.9285C35.0065 38.2688 36.9169 36.8721 38.2003 34.9769C39.4837 33.0818 40.0605 30.8057 39.8321 28.5375C39.6038 26.2693 38.5846 24.1497 36.9484 22.5407C35.9054 21.5121 34.6443 20.7246 33.2559 20.2347C31.8674 19.7448 30.3861 19.5648 28.9187 19.7077C27.4513 19.8505 26.0342 20.3126 24.7695 21.0607C23.5047 21.8088 22.4238 22.8243 21.6046 24.0341C20.7853 25.2438 20.2481 26.6178 20.0316 28.0571C19.815 29.4963 19.9246 30.9651 20.3523 32.3575C20.7801 33.75 21.5154 35.0315 22.5053 36.1099C23.4952 37.1883 24.7152 38.0367 26.0773 38.594ZM19.03 18.7781C20.4569 17.3701 22.1509 16.2532 24.0153 15.4912C25.8796 14.7291 27.8778 14.3369 29.8958 14.3369C31.9137 14.3369 33.9119 14.7291 35.7763 15.4911C37.6406 16.2532 39.3346 17.3701 40.7615 18.7781C42.1884 20.1861 43.3203 21.8577 44.0925 23.6973C44.8648 25.537 45.2622 27.5088 45.2622 29.5C45.2622 31.4912 44.8648 33.463 44.0925 35.3027C43.3203 37.1423 42.1884 38.8139 40.7615 40.2219C37.8797 43.0655 33.9712 44.6631 29.8958 44.6631C25.8203 44.6631 21.9118 43.0655 19.03 40.2219C16.1482 37.3783 14.5293 33.5215 14.5293 29.5C14.5293 25.4785 16.1482 21.6217 19.03 18.7781ZM48.6703 16.5951C49.0239 16.2659 49.307 15.8701 49.5028 15.4311C49.6986 14.9921 49.8031 14.5187 49.8102 14.0391C49.8173 13.5595 49.7268 13.0834 49.544 12.6389C49.3613 12.1944 49.09 11.7906 48.7463 11.4515C48.4026 11.1123 47.9934 10.8446 47.5429 10.6643C47.0925 10.484 46.61 10.3947 46.1239 10.4017C45.6379 10.4086 45.1582 10.5118 44.7133 10.705C44.2683 10.8982 43.8672 11.1775 43.5337 11.5265C42.8849 12.205 42.5298 13.1064 42.5436 14.0391C42.5574 14.9719 42.939 15.8626 43.6075 16.5223C44.2759 17.1819 45.1786 17.5585 46.1239 17.5721C47.0692 17.5857 47.9826 17.2352 48.6703 16.5951Z" fill="#032560"/>
</svg>
