<svg width="60" height="59" viewBox="0 0 60 59" fill="none" xmlns="http://www.w3.org/2000/svg">
<path d="M39.0725 0H20.719C3.97041 0 0 3.91785 0 20.4447V38.5553C0 55.0822 3.97041 59 20.719 59H39.0725C55.8211 59 59.7915 55.0822 59.7915 38.5553V20.4447C59.7915 3.91785 55.7819 0 39.0725 0ZM48.2689 42.0878H43.9286C42.2844 42.0878 41.778 40.8009 38.8203 37.8436C36.2512 35.386 35.1133 35.0597 34.4799 35.0597C33.585 35.0597 33.3309 35.3086 33.3309 36.5199V40.3898C33.3309 41.4278 33.0001 42.0509 30.2162 42.0509C25.6124 42.0509 20.5041 39.3038 16.9223 34.1857C11.5207 26.6856 10.0428 21.0679 10.0428 19.9063C10.0428 19.2813 10.295 18.6969 11.5114 18.6969H15.8611C16.9616 18.6969 17.3801 19.1965 17.808 20.3581C19.9585 26.4846 23.5403 31.8516 25.0182 31.8516C25.5638 31.8516 25.816 31.6027 25.816 30.2292V23.9016C25.6498 20.9831 24.0934 20.7323 24.0934 19.6962C24.0934 19.1965 24.5119 18.6969 25.1827 18.6969H32.023C32.9478 18.6969 33.2879 19.1965 33.2879 20.2714V28.8077C33.2879 29.7295 33.7064 30.0559 33.9586 30.0559C34.5042 30.0559 34.9713 29.7295 35.9822 28.7303C39.1062 25.2733 41.3445 19.9432 41.3445 19.9432C41.636 19.3182 42.1424 18.7338 43.2429 18.7338H47.5926C48.8967 18.7338 49.1882 19.3956 48.8967 20.3175C48.3511 22.8139 43.028 30.2273 43.028 30.2273C42.5702 30.9759 42.3946 31.3022 43.028 32.1374C43.4951 32.7624 45.0141 34.0585 46.0249 35.2201C47.884 37.3034 49.3134 39.0513 49.6945 40.2607C50.1224 41.461 49.4909 42.086 48.2633 42.086L48.2689 42.0878Z" fill="#032560"/>
</svg>
