<svg width="37" height="36" viewBox="0 0 37 36" fill="none" xmlns="http://www.w3.org/2000/svg">
<path fill-rule="evenodd" clip-rule="evenodd" d="M11.1505 0.10657C13.07 0.0193764 13.682 0 18.5714 0C23.4609 0 24.0729 0.0209911 25.9907 0.10657C27.9085 0.192149 29.2176 0.494099 30.363 0.931683C31.5625 1.37896 32.6507 2.07812 33.5507 2.98235C34.467 3.86883 35.174 4.94099 35.6256 6.12618C36.0707 7.25647 36.375 8.54823 36.4634 10.4374C36.5518 12.3347 36.5714 12.9386 36.5714 17.7617C36.5714 22.5864 36.5501 23.1903 36.4634 25.0844C36.3767 26.9736 36.0707 28.2654 35.6256 29.3956C35.1739 30.581 34.4659 31.6549 33.5507 32.5427C32.6507 33.4469 31.5625 34.1445 30.363 34.5901C29.2176 35.0293 27.9085 35.3297 25.994 35.4169C24.0729 35.5041 23.4609 35.5234 18.5714 35.5234C13.682 35.5234 13.07 35.5024 11.1505 35.4169C9.23596 35.3313 7.92687 35.0293 6.78141 34.5901C5.58019 34.1444 4.49184 33.4457 3.59214 32.5427C2.6764 31.6557 1.96774 30.5823 1.51559 29.3973C1.07214 28.267 0.767775 26.9752 0.679411 25.086C0.591047 23.1887 0.571411 22.5848 0.571411 17.7617C0.571411 12.937 0.592684 12.3331 0.679411 10.4407C0.766138 8.54823 1.07214 7.25647 1.51559 6.12618C1.96841 4.94112 2.67761 3.86772 3.59377 2.98074C4.4922 2.07732 5.57946 1.37806 6.77978 0.931683C7.92523 0.494099 9.23432 0.193764 11.1489 0.10657H11.1505ZM25.845 3.30368C23.9469 3.2181 23.3774 3.20034 18.5714 3.20034C13.7654 3.20034 13.196 3.2181 11.2978 3.30368C9.54196 3.3828 8.58959 3.67183 7.95468 3.91565C7.11523 4.23859 6.51468 4.62128 5.88468 5.24294C5.28748 5.81624 4.82789 6.51416 4.53959 7.28553C4.2925 7.91204 3.99959 8.8518 3.91941 10.5844C3.83268 12.4574 3.81468 13.0193 3.81468 17.7617C3.81468 22.5041 3.83268 23.066 3.91941 24.9391C3.99959 26.6716 4.2925 27.6114 4.53959 28.2379C4.82759 29.0081 5.28741 29.7073 5.88468 30.2805C6.46559 30.8699 7.17414 31.3236 7.95468 31.6078C8.58959 31.8516 9.54196 32.1406 11.2978 32.2198C13.196 32.3053 13.7638 32.3231 18.5714 32.3231C23.379 32.3231 23.9469 32.3053 25.845 32.2198C27.6009 32.1406 28.5532 31.8516 29.1881 31.6078C30.0276 31.2848 30.6281 30.9022 31.2581 30.2805C31.8554 29.7073 32.3152 29.0081 32.6032 28.2379C32.8503 27.6114 33.1432 26.6716 33.2234 24.9391C33.3101 23.066 33.3281 22.5041 33.3281 17.7617C33.3281 13.0193 33.3101 12.4574 33.2234 10.5844C33.1432 8.8518 32.8503 7.91204 32.6032 7.28553C32.276 6.45719 31.8881 5.8646 31.2581 5.24294C30.6771 4.65369 29.9698 4.20018 29.1881 3.91565C28.5532 3.67183 27.6009 3.3828 25.845 3.30368ZM16.2723 23.2372C17.5563 23.7646 18.986 23.8358 20.3173 23.4386C21.6486 23.0414 22.7988 22.2004 23.5715 21.0593C24.3442 19.9183 24.6915 18.5479 24.554 17.1822C24.4166 15.8166 23.8029 14.5403 22.8178 13.5716C22.1898 12.9523 21.4305 12.4781 20.5945 12.1832C19.7585 11.8882 18.8667 11.7798 17.9831 11.8658C17.0996 11.9518 16.2464 12.23 15.4849 12.6805C14.7234 13.1309 14.0726 13.7423 13.5794 14.4707C13.0861 15.1991 12.7626 16.0264 12.6323 16.8929C12.5019 17.7595 12.5678 18.6438 12.8254 19.4822C13.0829 20.3206 13.5257 21.0922 14.1217 21.7415C14.7177 22.3908 15.4522 22.9016 16.2723 23.2372ZM12.0292 11.3061C12.8884 10.4584 13.9083 9.7859 15.0308 9.3271C16.1533 8.8683 17.3564 8.63215 18.5714 8.63215C19.7864 8.63215 20.9895 8.8683 22.112 9.3271C23.2345 9.7859 24.2545 10.4584 25.1136 11.3061C25.9727 12.1539 26.6542 13.1603 27.1192 14.268C27.5841 15.3756 27.8235 16.5628 27.8235 17.7617C27.8235 18.9606 27.5841 20.1478 27.1192 21.2555C26.6542 22.3631 25.9727 23.3695 25.1136 24.2173C23.3785 25.9294 21.0252 26.8913 18.5714 26.8913C16.1176 26.8913 13.7643 25.9294 12.0292 24.2173C10.2941 22.5052 9.31937 20.183 9.31937 17.7617C9.31937 15.3404 10.2941 13.0183 12.0292 11.3061ZM29.8754 9.99177C30.0883 9.7936 30.2587 9.55529 30.3766 9.29095C30.4945 9.02661 30.5575 8.74162 30.5617 8.45285C30.566 8.16408 30.5115 7.8774 30.4015 7.60978C30.2914 7.34217 30.1281 7.09905 29.9212 6.89484C29.7142 6.69063 29.4678 6.52946 29.1966 6.42089C28.9254 6.31232 28.6349 6.25854 28.3423 6.26275C28.0496 6.26696 27.7608 6.32907 27.4929 6.4454C27.225 6.56173 26.9835 6.72991 26.7827 6.93999C26.3921 7.34856 26.1783 7.89124 26.1866 8.45285C26.1949 9.01446 26.4246 9.55077 26.8271 9.94792C27.2296 10.3451 27.7731 10.5718 28.3423 10.58C28.9114 10.5882 29.4614 10.3772 29.8754 9.99177Z" fill="#FFF"/>
</svg>
