<svg width="157" height="121" viewBox="0 0 157 121" fill="none" xmlns="http://www.w3.org/2000/svg">
<g opacity="0.9">
<path d="M80.4128 56.7895C78.4859 58.7348 67.9363 69.0036 51.174 69.0036C48.4441 69.0036 33.7601 68.7301 21.9364 56.7895C23.8621 54.8442 34.4129 44.5767 51.174 44.5767C53.9051 44.5767 68.5879 44.849 80.4128 56.7895Z" fill="url(#paint0_linear_29_334)"/>
<path d="M80.4128 56.7895C78.4859 58.7348 67.9363 69.0036 51.174 69.0036C48.4441 69.0036 33.7601 68.7301 21.9364 56.7895C23.8621 54.8442 34.4129 44.5767 51.174 44.5767C53.9051 44.5767 68.5879 44.849 80.4128 56.7895Z" fill="white"/>
</g>
<g opacity="0.9">
<path d="M76.7287 56.9121C78.6544 54.9667 89.2052 44.6992 105.966 44.6992C108.697 44.6992 123.38 44.9715 135.205 56.9121C133.278 58.8574 122.729 69.1261 105.966 69.1261C103.236 69.1261 88.5524 68.8526 76.7287 56.9121Z" fill="url(#paint1_linear_29_334)"/>
<path d="M76.7287 56.9121C78.6544 54.9667 89.2052 44.6992 105.966 44.6992C108.697 44.6992 123.38 44.9715 135.205 56.9121C133.278 58.8574 122.729 69.1261 105.966 69.1261C103.236 69.1261 88.5524 68.8526 76.7287 56.9121Z" fill="white"/>
</g>
<g opacity="0.9">
<path d="M78.3944 58.7803C75.6633 58.7803 60.9793 58.5485 49.1275 46.6374C37.2758 34.7262 37.0391 19.9646 37.0464 17.2208C39.7775 17.2147 54.4616 17.4514 66.3133 29.3637C68.2402 31.3041 78.431 41.9323 78.3944 58.7803Z" fill="url(#paint2_linear_29_334)"/>
<path d="M78.3944 58.7803C75.6633 58.7803 60.9793 58.5485 49.1275 46.6374C37.2758 34.7262 37.0391 19.9646 37.0464 17.2208C39.7775 17.2147 54.4616 17.4514 66.3133 29.3637C68.2402 31.3041 78.431 41.9323 78.3944 58.7803Z" fill="white"/>
<path d="M78.3944 58.7803C75.6633 58.7803 60.9793 58.5485 49.1275 46.6374C37.2758 34.7262 37.0391 19.9646 37.0464 17.2208C39.7775 17.2147 54.4616 17.4514 66.3133 29.3637C68.2402 31.3041 78.431 41.9323 78.3944 58.7803Z" fill="white"/>
</g>
<path opacity="0.9" d="M78.4823 58.7803C78.4762 56.0353 78.7117 41.2761 90.5634 29.3638C92.494 27.4233 103.068 17.1791 119.83 17.2208C119.83 19.9646 119.6 34.7238 107.749 46.6374C95.8987 58.5509 81.2121 58.7864 78.4823 58.7803Z" fill="white"/>
<g opacity="0.9">
<path d="M78.5933 58.7755C76.6579 56.8387 66.4414 46.2413 66.4414 29.3871C66.4414 26.6433 66.7123 11.8841 78.5933 0C80.5275 1.93551 90.744 12.5403 90.744 29.3871C90.744 32.1358 90.4756 46.8901 78.5933 58.7755Z" fill="url(#paint3_linear_29_334)"/>
<path d="M78.5933 58.7755C76.6579 56.8387 66.4414 46.2413 66.4414 29.3871C66.4414 26.6433 66.7123 11.8841 78.5933 0C80.5275 1.93551 90.744 12.5403 90.744 29.3871C90.744 32.1358 90.4756 46.8901 78.5933 58.7755Z" fill="white"/>
</g>
<g opacity="0.7">
<path d="M0.0231934 83.1739C24.4295 89.7213 40.1936 87.3442 50.2844 83.6646C60.0799 80.094 66.0485 74.7413 78.7886 73.5528C90.3596 72.4722 100.664 75.4662 107.693 78.2505C101.777 78.0947 92.9992 78.3168 82.9511 80.4375C69.0773 83.3665 62.3082 87.9048 55.2499 90.364C44.8955 93.9738 28.0478 95.1464 0.0231934 83.1739Z" fill="url(#paint4_linear_29_334)"/>
<path d="M0.0231934 83.1739C24.4295 89.7213 40.1936 87.3442 50.2844 83.6646C60.0799 80.094 66.0485 74.7413 78.7886 73.5528C90.3596 72.4722 100.664 75.4662 107.693 78.2505C101.777 78.0947 92.9992 78.3168 82.9511 80.4375C69.0773 83.3665 62.3082 87.9048 55.2499 90.364C44.8955 93.9738 28.0478 95.1464 0.0231934 83.1739Z" fill="white"/>
</g>
<path opacity="0.8" d="M3.79883 95.0583C14.8451 99.5487 30.8289 103.997 48.9152 101.025C64.2717 98.5025 72.1269 91.9661 83.1939 87.4867C97.3325 81.7648 120.057 78.0484 156.983 88.5771C127.166 84.6644 106.828 89.0138 93.4385 94.0648C77.4877 100.082 70.9663 106.884 56.2188 109.084C35.3868 112.193 16.6768 103.358 3.79883 95.0583Z" fill="white"/>
<g opacity="0.9">
<path d="M34.6485 114.032C54.4933 117.883 67.9754 114.69 76.5799 111.11C86.9757 106.784 90.4842 101.798 101.116 97.5349C115.963 91.5787 130.323 92.8004 139.914 94.6635C133.154 95.2363 123.277 96.7487 112.256 101.145C97.141 107.182 92.3061 113.702 82.2592 117.793C72.6809 121.691 57.7333 123.637 34.6485 114.032Z" fill="url(#paint5_linear_29_334)"/>
<path d="M34.6485 114.032C54.4933 117.883 67.9754 114.69 76.5799 111.11C86.9757 106.784 90.4842 101.798 101.116 97.5349C115.963 91.5787 130.323 92.8004 139.914 94.6635C133.154 95.2363 123.277 96.7487 112.256 101.145C97.141 107.182 92.3061 113.702 82.2592 117.793C72.6809 121.691 57.7333 123.637 34.6485 114.032Z" fill="white"/>
</g>
<defs>
<linearGradient id="paint0_linear_29_334" x1="21.9364" y1="56.7895" x2="80.4128" y2="56.7895" gradientUnits="userSpaceOnUse">
<stop stop-color="#FF66A4"/>
<stop offset="0.17" stop-color="#FF6FA9" stop-opacity="0.98"/>
<stop offset="1" stop-color="#FF94C0" stop-opacity="0.9"/>
</linearGradient>
<linearGradient id="paint1_linear_29_334" x1="134.128" y1="56.8051" x2="105.285" y2="26.2841" gradientUnits="userSpaceOnUse">
<stop stop-color="#FF4399"/>
<stop offset="0.51" stop-color="#FF6FAE" stop-opacity="0.95"/>
<stop offset="1" stop-color="#FF94C0" stop-opacity="0.9"/>
</linearGradient>
<linearGradient id="paint2_linear_29_334" x1="36.1482" y1="22.6091" x2="74.526" y2="49.7152" gradientUnits="userSpaceOnUse">
<stop stop-color="#FF4399"/>
<stop offset="0.51" stop-color="#FF6FAE" stop-opacity="0.95"/>
<stop offset="1" stop-color="#FF94C0" stop-opacity="0.9"/>
</linearGradient>
<linearGradient id="paint3_linear_29_334" x1="77.5805" y1="2.42462" x2="77.4572" y2="54.561" gradientUnits="userSpaceOnUse">
<stop stop-color="#FF2492"/>
<stop offset="0.357563" stop-color="#FD5AA9" stop-opacity="0.94"/>
<stop offset="1" stop-color="#FC7EB8" stop-opacity="0.9"/>
</linearGradient>
<linearGradient id="paint4_linear_29_334" x1="0.261253" y1="78.6332" x2="107.223" y2="87.1466" gradientUnits="userSpaceOnUse">
<stop stop-color="#025C5F"/>
<stop offset="1" stop-color="#009E80"/>
</linearGradient>
<linearGradient id="paint5_linear_29_334" x1="35.4916" y1="102.855" x2="138.932" y2="111.088" gradientUnits="userSpaceOnUse">
<stop stop-color="#032560"/>
<stop offset="1" stop-color="#088296"/>
</linearGradient>
</defs>
</svg>
