<svg width="36" height="36" viewBox="0 0 36 36" fill="none" xmlns="http://www.w3.org/2000/svg">
<path d="M23.5253 0H12.4747C2.39055 0 0 2.3589 0 12.3096V23.2138C0 33.1645 2.39055 35.5234 12.4747 35.5234H23.5253C33.6094 35.5234 36 33.1645 36 23.2138V12.3096C36 2.3589 33.5858 0 23.5253 0ZM29.0623 25.3407H26.449C25.4591 25.3407 25.1542 24.5659 23.3734 22.7854C21.8266 21.3056 21.1415 21.1091 20.7601 21.1091C20.2212 21.1091 20.0682 21.259 20.0682 21.9883V24.3184C20.0682 24.9433 19.8691 25.3185 18.1929 25.3185C15.421 25.3185 12.3454 23.6645 10.1888 20.583C6.93653 16.0672 6.04669 12.6848 6.04669 11.9855C6.04669 11.6091 6.19856 11.2572 6.93091 11.2572H9.54983C10.2124 11.2572 10.4644 11.5581 10.722 12.2574C12.0169 15.9462 14.1734 19.1776 15.0633 19.1776C15.3918 19.1776 15.5436 19.0278 15.5436 18.2008V14.391C15.4435 12.6337 14.5064 12.4828 14.5064 11.8589C14.5064 11.5581 14.7584 11.2572 15.1623 11.2572H19.2808C19.8376 11.2572 20.0424 11.5581 20.0424 12.2052V17.3449C20.0424 17.8999 20.2944 18.0964 20.4462 18.0964C20.7747 18.0964 21.056 17.8999 21.6646 17.2983C23.5455 15.2169 24.8932 12.0077 24.8932 12.0077C25.0687 11.6313 25.3736 11.2794 26.0362 11.2794H28.6551C29.4403 11.2794 29.6158 11.678 29.4403 12.233C29.1118 13.736 25.9068 18.1996 25.9068 18.1996C25.6312 18.6503 25.5255 18.8468 25.9068 19.3497C26.1881 19.726 27.1027 20.5064 27.7113 21.2057C28.8306 22.4601 29.6912 23.5125 29.9207 24.2407C30.1783 24.9633 29.7981 25.3396 29.059 25.3396L29.0623 25.3407Z" fill="#FFF"/>
</svg>
